<mxfile host="app.diagrams.net" modified="2023-10-14T22:49:43.568Z" agent="Mozilla/5.0 (Macintosh; Intel Mac OS X 10_15_7) AppleWebKit/537.36 (KHTML, like Gecko) Chrome/117.0.0.0 Safari/537.36" etag="lpj7XPhz5wI4a6lXgiZi" version="22.0.4" type="github">
  <diagram name="Page-1" id="N1XHB9eJ3Ktm11am80fy">
    <mxGraphModel dx="2286" dy="1542" grid="1" gridSize="10" guides="1" tooltips="1" connect="1" arrows="1" fold="1" page="1" pageScale="1" pageWidth="1100" pageHeight="850" math="0" shadow="0">
      <root>
        <mxCell id="0" />
        <mxCell id="1" parent="0" />
        <mxCell id="amkf--ewnWth5ymRdd6v-28" value="" style="verticalAlign=top;align=left;spacingTop=8;spacingLeft=2;spacingRight=12;shape=cube;size=10;direction=south;fontStyle=4;html=1;whiteSpace=wrap;" parent="1" vertex="1">
          <mxGeometry x="-880" y="-630" width="610" height="250" as="geometry" />
        </mxCell>
        <mxCell id="amkf--ewnWth5ymRdd6v-22" value="" style="verticalAlign=top;align=left;spacingTop=8;spacingLeft=2;spacingRight=12;shape=cube;size=10;direction=south;fontStyle=4;html=1;whiteSpace=wrap;" parent="1" vertex="1">
          <mxGeometry x="-740" y="-290" width="320" height="490" as="geometry" />
        </mxCell>
        <mxCell id="ZZaK3AFCLJGnbKY80Tlh-2" value="" style="verticalAlign=top;align=center;spacingTop=8;spacingLeft=2;spacingRight=12;shape=cube;size=10;direction=south;fontStyle=4;html=1;whiteSpace=wrap;" parent="1" vertex="1">
          <mxGeometry x="-812.5" y="-553.1" width="234.23" height="150" as="geometry" />
        </mxCell>
        <mxCell id="ZZaK3AFCLJGnbKY80Tlh-3" value="" style="verticalAlign=top;align=center;spacingTop=8;spacingLeft=2;spacingRight=12;shape=cube;size=10;direction=south;fontStyle=4;html=1;whiteSpace=wrap;" parent="1" vertex="1">
          <mxGeometry x="-557.5" y="-550" width="220" height="150" as="geometry" />
        </mxCell>
        <mxCell id="cxZqdax2sH9tnhvdFXiP-1" value="&amp;lt;&amp;lt;artifact&amp;gt;&amp;gt;&lt;br&gt;:TriageRecord.py" style="rounded=0;whiteSpace=wrap;html=1;" parent="1" vertex="1">
          <mxGeometry x="-805.39" y="-489.59000000000003" width="200" height="66.67" as="geometry" />
        </mxCell>
        <mxCell id="cxZqdax2sH9tnhvdFXiP-3" value="&amp;lt;&amp;lt;artifact&amp;gt;&amp;gt;&lt;br&gt;:UserInfo.py" style="rounded=0;whiteSpace=wrap;html=1;" parent="1" vertex="1">
          <mxGeometry x="-540" y="-489.59" width="180" height="67.08" as="geometry" />
        </mxCell>
        <mxCell id="cxZqdax2sH9tnhvdFXiP-5" value="" style="shape=note;whiteSpace=wrap;html=1;backgroundOutline=1;darkOpacity=0.05;size=9;" parent="1" vertex="1">
          <mxGeometry x="-632.5" y="-483.1" width="18" height="22.5" as="geometry" />
        </mxCell>
        <mxCell id="cxZqdax2sH9tnhvdFXiP-8" value="" style="shape=note;whiteSpace=wrap;html=1;backgroundOutline=1;darkOpacity=0.05;size=9;" parent="1" vertex="1">
          <mxGeometry x="-387" y="-483.09999999999997" width="18" height="22.5" as="geometry" />
        </mxCell>
        <mxCell id="amkf--ewnWth5ymRdd6v-2" value="" style="verticalAlign=top;align=center;spacingTop=8;spacingLeft=2;spacingRight=12;shape=cube;size=10;direction=south;fontStyle=4;html=1;whiteSpace=wrap;" parent="1" vertex="1">
          <mxGeometry x="-710" y="-220" width="260" height="380" as="geometry" />
        </mxCell>
        <mxCell id="amkf--ewnWth5ymRdd6v-6" value="&amp;lt;&amp;lt;artifact&amp;gt;&amp;gt;&lt;br&gt;AccountInfoSchema&lt;br&gt;:Schema" style="rounded=0;whiteSpace=wrap;html=1;" parent="1" vertex="1">
          <mxGeometry x="-682.51" y="-54.32" width="202.51" height="84.32" as="geometry" />
        </mxCell>
        <mxCell id="amkf--ewnWth5ymRdd6v-7" value="&amp;lt;&amp;lt;artifact&amp;gt;&amp;gt;&lt;br&gt;UserHealthInfoSchema&lt;br&gt;:Schema" style="rounded=0;whiteSpace=wrap;html=1;" parent="1" vertex="1">
          <mxGeometry x="-682.51" y="40" width="202.51" height="100" as="geometry" />
        </mxCell>
        <mxCell id="amkf--ewnWth5ymRdd6v-10" value="" style="shape=note;whiteSpace=wrap;html=1;backgroundOutline=1;darkOpacity=0.05;size=9;" parent="1" vertex="1">
          <mxGeometry x="-509.62" y="-32" width="18" height="22.5" as="geometry" />
        </mxCell>
        <mxCell id="amkf--ewnWth5ymRdd6v-12" value="" style="shape=note;whiteSpace=wrap;html=1;backgroundOutline=1;darkOpacity=0.05;size=9;" parent="1" vertex="1">
          <mxGeometry x="-510.5" y="59.999999999999915" width="18" height="22.5" as="geometry" />
        </mxCell>
        <mxCell id="amkf--ewnWth5ymRdd6v-13" value="" style="verticalAlign=top;align=left;spacingTop=8;spacingLeft=2;spacingRight=12;shape=cube;size=10;direction=south;fontStyle=4;html=1;whiteSpace=wrap;" parent="1" vertex="1">
          <mxGeometry x="-630" y="-810" width="120" height="90" as="geometry" />
        </mxCell>
        <mxCell id="amkf--ewnWth5ymRdd6v-14" value="&amp;lt;&amp;lt;execution environment&amp;gt;&amp;gt;&lt;br&gt;Triage Record Management" style="text;html=1;strokeColor=none;fillColor=none;align=center;verticalAlign=middle;whiteSpace=wrap;rounded=0;" parent="1" vertex="1">
          <mxGeometry x="-777.5" y="-537.5" width="160" height="30" as="geometry" />
        </mxCell>
        <mxCell id="amkf--ewnWth5ymRdd6v-15" value="&amp;lt;&amp;lt;execution environment&amp;gt;&amp;gt;&lt;br&gt;Account Management" style="text;html=1;strokeColor=none;fillColor=none;align=center;verticalAlign=middle;whiteSpace=wrap;rounded=0;" parent="1" vertex="1">
          <mxGeometry x="-531" y="-537.4999999999999" width="162" height="30" as="geometry" />
        </mxCell>
        <mxCell id="amkf--ewnWth5ymRdd6v-16" value="&amp;lt;&amp;lt;execution environment&amp;gt;&amp;gt;&lt;br&gt;Patient: RDBMS" style="text;html=1;strokeColor=none;fillColor=none;align=center;verticalAlign=middle;whiteSpace=wrap;rounded=0;" parent="1" vertex="1">
          <mxGeometry x="-667.51" y="-181.25" width="170" height="30" as="geometry" />
        </mxCell>
        <mxCell id="amkf--ewnWth5ymRdd6v-25" value="&amp;lt;&amp;lt;device&amp;gt;&amp;gt;&lt;br&gt;Patient Database Server" style="text;html=1;strokeColor=none;fillColor=none;align=center;verticalAlign=middle;whiteSpace=wrap;rounded=0;" parent="1" vertex="1">
          <mxGeometry x="-650" y="-260" width="160" height="30" as="geometry" />
        </mxCell>
        <mxCell id="amkf--ewnWth5ymRdd6v-30" value="&amp;lt;&amp;lt;device&amp;gt;&amp;gt;&lt;br&gt;{OS=Linux}&lt;br&gt;Patient Account Management" style="text;html=1;strokeColor=none;fillColor=none;align=center;verticalAlign=middle;whiteSpace=wrap;rounded=0;" parent="1" vertex="1">
          <mxGeometry x="-670" y="-600" width="190" height="30" as="geometry" />
        </mxCell>
        <mxCell id="amkf--ewnWth5ymRdd6v-32" value="" style="endArrow=none;html=1;rounded=0;exitX=0.004;exitY=0.501;exitDx=0;exitDy=0;exitPerimeter=0;entryX=0;entryY=0;entryDx=90;entryDy=65;entryPerimeter=0;" parent="1" source="amkf--ewnWth5ymRdd6v-28" target="amkf--ewnWth5ymRdd6v-13" edge="1">
          <mxGeometry width="50" height="50" relative="1" as="geometry">
            <mxPoint x="-583" y="-480" as="sourcePoint" />
            <mxPoint x="-600" y="-680" as="targetPoint" />
          </mxGeometry>
        </mxCell>
        <mxCell id="amkf--ewnWth5ymRdd6v-33" value="FastApi" style="edgeLabel;html=1;align=center;verticalAlign=middle;resizable=0;points=[];" parent="amkf--ewnWth5ymRdd6v-32" vertex="1" connectable="0">
          <mxGeometry x="0.1109" y="-2" relative="1" as="geometry">
            <mxPoint as="offset" />
          </mxGeometry>
        </mxCell>
        <mxCell id="amkf--ewnWth5ymRdd6v-34" value="" style="endArrow=none;html=1;rounded=0;entryX=1;entryY=0.525;entryDx=0;entryDy=0;entryPerimeter=0;" parent="1" edge="1">
          <mxGeometry width="50" height="50" relative="1" as="geometry">
            <mxPoint x="-576" y="-290" as="sourcePoint" />
            <mxPoint x="-576.22" y="-380" as="targetPoint" />
          </mxGeometry>
        </mxCell>
        <mxCell id="amkf--ewnWth5ymRdd6v-35" value="SQLAlchemy" style="edgeLabel;html=1;align=center;verticalAlign=middle;resizable=0;points=[];" parent="amkf--ewnWth5ymRdd6v-34" vertex="1" connectable="0">
          <mxGeometry x="-0.0172" y="-1" relative="1" as="geometry">
            <mxPoint as="offset" />
          </mxGeometry>
        </mxCell>
        <mxCell id="amkf--ewnWth5ymRdd6v-36" value="UI" style="text;html=1;strokeColor=none;fillColor=none;align=center;verticalAlign=middle;whiteSpace=wrap;rounded=0;" parent="1" vertex="1">
          <mxGeometry x="-600" y="-780" width="60" height="30" as="geometry" />
        </mxCell>
        <mxCell id="amkf--ewnWth5ymRdd6v-39" value="&amp;lt;&amp;lt;artifact&amp;gt;&amp;gt;&lt;br&gt;TriageRecordSchema&lt;br&gt;:Schema" style="rounded=0;whiteSpace=wrap;html=1;" parent="1" vertex="1">
          <mxGeometry x="-682.51" y="-146.26" width="200" height="80" as="geometry" />
        </mxCell>
        <mxCell id="amkf--ewnWth5ymRdd6v-40" value="" style="shape=note;whiteSpace=wrap;html=1;backgroundOutline=1;darkOpacity=0.05;size=9;" parent="1" vertex="1">
          <mxGeometry x="-509.62" y="-126.26" width="18" height="22.5" as="geometry" />
        </mxCell>
      </root>
    </mxGraphModel>
  </diagram>
</mxfile>
